<?xml version="1.0" encoding="UTF-8" standalone="no"?>
<!-- Created with Inkscape (http://www.inkscape.org/) -->

<svg
   xmlns:dc="http://purl.org/dc/elements/1.1/"
   xmlns:cc="http://creativecommons.org/ns#"
   xmlns:rdf="http://www.w3.org/1999/02/22-rdf-syntax-ns#"
   xmlns:svg="http://www.w3.org/2000/svg"
   xmlns="http://www.w3.org/2000/svg"
   xmlns:sodipodi="http://sodipodi.sourceforge.net/DTD/sodipodi-0.dtd"
   xmlns:inkscape="http://www.inkscape.org/namespaces/inkscape"
   width="100"
   height="100"
   id="svg2"
   version="1.1"
   inkscape:version="0.48.4 r9939"
   sodipodi:docname="New document 1">
  <defs
     id="defs4" />
  <sodipodi:namedview
     id="base"
     pagecolor="#ffffff"
     bordercolor="#666666"
     borderopacity="1.0"
     inkscape:pageopacity="0.0"
     inkscape:pageshadow="2"
     inkscape:zoom="3.959798"
     inkscape:cx="57.856422"
     inkscape:cy="30.357353"
     inkscape:document-units="px"
     inkscape:current-layer="layer1"
     showgrid="false"
     inkscape:window-width="1920"
     inkscape:window-height="1056"
     inkscape:window-x="1920"
     inkscape:window-y="24"
     inkscape:window-maximized="1" />
  <metadata
     id="metadata7">
    <rdf:RDF>
      <cc:Work
         rdf:about="">
        <dc:format>image/svg+xml</dc:format>
        <dc:type
           rdf:resource="http://purl.org/dc/dcmitype/StillImage" />
        <dc:title></dc:title>
      </cc:Work>
    </rdf:RDF>
  </metadata>
  <g
     inkscape:label="Layer 1"
     inkscape:groupmode="layer"
     id="layer1"
     transform="translate(0,-952.36215)">
    <g
       id="g3832">
      <path
         transform="matrix(4.4987055,0,0,4.4987055,-110.47338,458.86394)"
         d="m 46.340749,120.81213 a 10.669736,10.669736 0 1 1 -21.339472,0 10.669736,10.669736 0 1 1 21.339472,0 z"
         sodipodi:ry="10.669736"
         sodipodi:rx="10.669736"
         sodipodi:cy="120.81213"
         sodipodi:cx="35.671013"
         id="path2985"
         style="fill:#d3d7cf;fill-opacity:1;stroke:#2e3436;stroke-width:0.44457233;stroke-miterlimit:4;stroke-dasharray:none"
         sodipodi:type="arc" />
      <path
         transform="translate(119.64285,954.68358)"
         d="m -51.250002,28.035713 a 18.928572,18.928572 0 1 1 -37.857143,0 18.928572,18.928572 0 1 1 37.857143,0 z"
         sodipodi:ry="18.928572"
         sodipodi:rx="18.928572"
         sodipodi:cy="28.035713"
         sodipodi:cx="-70.178574"
         id="path2987"
         style="fill:#e9b96e;fill-opacity:1;stroke:#2e3436;stroke-width:2;stroke-miterlimit:4;stroke-dasharray:none"
         sodipodi:type="arc" />
      <path
         transform="translate(0,952.36215)"
         id="path2987-3"
         d="M 34.84375 51.5 C 25.931014 57.354372 19.90625 68.523647 19.90625 81.34375 C 19.90625 83.540931 20.09965 85.699556 20.4375 87.78125 C 28.589312 94.168806 38.840724 98 50 98 C 60.230748 98 69.711131 94.798478 77.5 89.34375 C 78.027351 86.77464 78.3125 84.102333 78.3125 81.34375 C 78.3125 68.705245 72.455165 57.669245 63.75 51.75 C 59.664663 54.483722 54.753454 56.0625 49.46875 56.0625 C 44.030554 56.0625 38.997913 54.380844 34.84375 51.5 z "
         style="fill:#4e9a06;fill-opacity:1;stroke:#2e3436;stroke-width:2;stroke-miterlimit:4;stroke-dasharray:none" />
      <path
         sodipodi:nodetypes="ssscsss"
         inkscape:connector-curvature="0"
         id="path2987-5"
         d="m -49.250002,28.035713 c 0,1.437584 -0.08123,2.709305 -0.774139,3.339042 -0.7102,0.645444 -2.047099,0.630441 -3.275395,0.590537 -6.287958,-0.204277 -17.973129,-8.30583 -20.807609,-13.215293 -12.953961,0 -17,19.739676 -17,9.285714 0,-10.453961 10.47461,-18.9285715 20.928571,-18.9285715 10.453962,0 20.928572,8.4746105 20.928572,18.9285715 z"
         style="fill:#8f5902;fill-opacity:1;stroke:#2e3436;stroke-width:2;stroke-miterlimit:4"
         transform="translate(119.64285,952.68358)" />
    </g>
  </g>
</svg>
